<?xml version="1.0" encoding="utf-8"?>
<!-- Generator: Adobe Illustrator 16.0.0, SVG Export Plug-In . SVG Version: 6.00 Build 0)  -->
<!DOCTYPE svg PUBLIC "-//W3C//DTD SVG 1.1//EN" "http://www.w3.org/Graphics/SVG/1.1/DTD/svg11.dtd">
<svg version="1.1" id="Layer_1" xmlns="http://www.w3.org/2000/svg" xmlns:xlink="http://www.w3.org/1999/xlink" x="0px" y="0px"
	 width="960px" height="560px" viewBox="0 0 960 560" enable-background="new 0 0 960 560" xml:space="preserve">
<path fill-rule="evenodd" clip-rule="evenodd" d="M488.376,281.831c-0.22,0.709-0.741,1.193-1.249,1.689
	c-0.094,0.092-0.202,0.168-0.297,0.258c-0.91,0.871-1.968,0.959-3.119,0.609c-0.387-0.117-0.727-0.275-0.972-0.621
	c-0.132-0.186-0.341-0.316-0.479-0.5c-0.266-0.355-0.52-0.725-0.754-1.102c-0.146-0.236-0.225-0.26-0.404-0.049
	c-0.357,0.422-0.602,0.908-0.864,1.391c-0.318,0.584-0.71,1.133-1.106,1.672c-0.271,0.369-0.542,0.742-0.933,1.018
	c-0.631,0.445-1.32,0.736-2.07,0.873c-0.251,0.047-0.521-0.01-0.783-0.023c-0.579-0.031-1.146-0.076-1.654-0.428
	c-0.234-0.16-0.566-0.18-0.804-0.338c-0.341-0.229-0.671-0.494-0.944-0.799c-0.399-0.445-0.796-0.908-1.095-1.422
	c-0.277-0.475-0.372-1.037-0.411-1.6c-0.076-1.094,0.114-2.147,0.451-3.183c0.286-0.879,0.518-1.779,0.851-2.639
	c0.284-0.732,0.646-1.458,1.33-1.91c0.465-0.307,0.981-0.546,1.497-0.762c0.509-0.212,1.04-0.382,1.573-0.525
	c0.882-0.237,1.747-0.569,2.686-0.525c0.793,0.037,1.546,0.23,2.122,0.786c0.334,0.323,0.547,0.773,0.813,1.167
	c0.02,0.031,0.018,0.077,0.038,0.108c0.06,0.094,0.125,0.185,0.188,0.277c0.074-0.069,0.161-0.129,0.221-0.209
	c0.398-0.536,1.258-0.778,1.953-0.576c0.289,0.084,0.521,0.196,0.729,0.436c0.213,0.248,0.282,0.52,0.273,0.808
	c-0.011,0.391-0.014,0.805-0.143,1.166c-0.174,0.488-0.204,0.987-0.275,1.484c-0.049,0.341-0.056,0.688-0.079,1.032
	c-0.029,0.438-0.077,0.876-0.078,1.314c-0.001,0.368,0.044,0.738,0.091,1.104c0.021,0.17,0.126,0.197,0.234,0.086
	c0.257-0.264,0.525-0.519,0.764-0.799c0.305-0.355,0.596-0.723,0.871-1.101c0.416-0.571,0.819-1.153,1.219-1.736
	c0.296-0.431,0.562-0.883,0.869-1.307C488.635,276.956,490.922,274.34,488.376,281.831z M475.779,283.558
	c0.047,0.107,0.08,0.18,0.112,0.252c0.064-0.037,0.142-0.059,0.189-0.109c0.422-0.449,0.839-0.902,1.255-1.355
	c0.041-0.045,0.063-0.105,0.1-0.154c0.209-0.283,0.413-0.57,0.633-0.846c0.297-0.369,0.643-0.705,0.902-1.099
	c0.319-0.485,0.736-0.904,0.96-1.458c0.108-0.265,0.322-0.487,0.482-0.732c0.207-0.316,0.201-0.314-0.06-0.58
	c-0.118-0.121-0.214-0.263-0.332-0.385c-0.122-0.127-0.237-0.282-0.389-0.354c-0.424-0.2-0.864-0.367-1.3-0.54
	c-0.162-0.064-0.321-0.025-0.414,0.116c-0.173,0.261-0.359,0.522-0.474,0.81c-0.224,0.564-0.402,1.147-0.598,1.723
	c-0.022,0.065-0.047,0.134-0.047,0.202c-0.004,0.708-0.274,1.355-0.446,2.026C476.141,281.901,475.967,282.737,475.779,283.558z"/>
</svg>
