<?xml version="1.0" encoding="utf-8"?>
<!-- Generator: Adobe Illustrator 16.0.0, SVG Export Plug-In . SVG Version: 6.00 Build 0)  -->
<!DOCTYPE svg PUBLIC "-//W3C//DTD SVG 1.1//EN" "http://www.w3.org/Graphics/SVG/1.1/DTD/svg11.dtd">
<svg version="1.1" id="Layer_1" xmlns="http://www.w3.org/2000/svg" xmlns:xlink="http://www.w3.org/1999/xlink" x="0px" y="0px"
	 width="460.002px" height="246.971px" viewBox="0 0 460.002 246.971" enable-background="new 0 0 460.002 246.971"
	 xml:space="preserve">
<g>
	<path fill="#FFFFFF" d="M375.93,189.415c0.54-3.009,0.917-6.059,1.66-9.017c1.074-4.283,2.413-8.503,3.642-12.749
		c0.037-0.127,0.135-0.248,0.131-0.371c-0.02-0.575-0.064-1.151-0.102-1.729c-0.518,0.174-1.176,0.201-1.528,0.545
		c-2.01,1.957-4.105,3.859-5.876,6.023c-3.633,4.434-7.185,8.942-10.557,13.577c-1.847,2.537-3.354,5.339-4.836,8.115
		c-2.369,4.447-4.572,8.984-6.882,13.466c-3.127,6.071-6.907,11.792-9.488,18.165c-1.329,3.281-2.954,6.465-5.683,8.924
		c-2.189,1.976-5.393,2.117-7.816,0.457c-1.652-1.133-2.585-2.756-3.801-4.229c-2.058-2.496-1.938-5.421-2.521-8.246
		c-1.162-5.617-0.084-11.18,0.354-16.752c0.109-1.416,0.738-2.783,1.07-4.188c0.992-4.179,1.956-8.361,2.926-12.546
		c0.693-2.981,1.332-5.979,2.084-8.946c0.603-2.37,1.457-4.681,1.975-7.064c0.443-2.043,0.579-4.154,0.82-6.239
		c0.023-0.222-0.153-0.466-0.237-0.699c-0.203,0.184-0.465,0.332-0.594,0.557c-1.64,2.836-3.123,5.771-4.923,8.5
		c-1.846,2.798-3.909,5.463-6.038,8.055c-1.573,1.916-3.259,3.793-5.151,5.379c-3,2.517-6.626,3.929-10.391,4.894
		c-2.713,0.693-5.164-0.424-7.647-1.322c-1.349-0.486-2.782-0.771-4.202-0.993c-0.489-0.074-1.13,0.2-1.562,0.512
		c-1.78,1.274-3.439,2.725-5.268,3.926c-2.854,1.877-5.662,3.934-8.76,5.295c-2.699,1.186-5.462,2.574-8.668,2.344
		c-2.927-0.209-5.267-1.467-7.003-3.627c-2.562-3.188-4.453-6.794-5.565-10.766c-0.165-0.586-0.322-1.196-0.334-1.799
		c-0.12-5.648-0.261-11.296-0.271-16.941c-0.005-2.049,0.357-4.098,0.492-6.148c0.029-0.438-0.186-0.894-0.29-1.34
		c-0.407,0.207-0.927,0.318-1.21,0.64c-2.213,2.487-4.396,5.004-6.557,7.539c-1.221,1.436-2.43,2.887-3.547,4.399
		c-1.244,1.687-2.44,3.412-3.543,5.191c-2.562,4.127-4.975,8.349-7.61,12.427c-1.274,1.974-2.78,3.849-4.432,5.521
		c-2.605,2.642-5.096,2.688-7.745,0.203c-1.49-1.395-2.435-3.188-3.256-5.135c-1.869-4.439-0.523-8.791-0.172-13.185
		c0.169-2.139,0.312-4.278,0.438-6.421c0.018-0.279-0.143-0.568-0.221-0.855c-0.315,0.099-0.731,0.102-0.928,0.312
		c-0.655,0.695-1.305,1.415-1.823,2.214c-1.831,2.819-3.736,5.604-5.367,8.537c-1.645,2.96-3.009,6.073-4.469,9.134
		c-0.649,1.361-1.229,2.759-1.847,4.137c-0.983,2.196-1.979,4.387-2.954,6.586c-0.39,0.878-0.704,1.79-1.112,2.659
		c-1.224,2.615-2.524,5.195-3.7,7.832c-0.87,1.948-1.604,3.957-2.376,5.947c-1.246,3.215-2.483,6.432-3.693,9.659
		c-0.163,0.438-0.143,0.945-0.203,1.423c-0.083,0.649-0.048,1.343-0.267,1.942c-0.627,1.725-1.276,3.447-2.069,5.099
		c-0.536,1.114-1.438,1.889-2.706,2.335c-5.41,1.904-10.062,0.447-14.3-3.038c-0.268-0.22-0.525-0.49-0.683-0.794
		c-2.155-4.177-5.062-8.065-5.389-12.969c-0.143-2.125,0.039-4.278,0.147-6.416c0.098-1.917,0.214-3.84,0.463-5.741
		c0.978-7.478,2.008-14.945,3.02-22.418c0.324-2.39,0.655-4.776,0.967-7.166c0.037-0.285-0.029-0.584-0.048-0.875
		c-0.287,0.161-0.608,0.28-0.856,0.489c-3.269,2.746-5.378,6.441-7.953,9.757c-2.717,3.495-5.151,7.26-8.191,10.444
		c-4.054,4.246-9.183,6.201-15.175,5.002c-1.799-0.36-3.566-0.866-5.358-1.258c-1.281-0.279-2.33,0.363-2.922,1.34
		c-2.357,3.887-5.798,6.642-9.351,9.312c-0.444,0.334-0.745,0.854-1.146,1.252c-2.204,2.193-4.858,3.678-7.717,4.817
		c-0.977,0.392-1.968,0.747-2.975,1.045c-5.422,1.604-10.702,0.861-15.809-1.231c-2.484-1.019-4.72-2.537-6.998-4.017
		c-3.771-2.448-5.792-6.11-7.78-9.722c-1.683-3.058-2.447-6.617-3.653-9.941c-0.18-0.493-0.55-0.918-0.832-1.373
		c-0.344,0.401-0.738,0.77-1.02,1.211c-1.105,1.731-2.177,3.487-3.261,5.233c-0.64,1.029-1.294,2.051-1.921,3.09
		c-1.035,1.716-2.01,3.467-3.085,5.154c-1.646,2.588-3.194,5.262-5.093,7.652c-1.305,1.644-3.139,2.862-4.727,4.283
		c-1.392,1.244-2.736,2.548-4.167,3.742c-0.869,0.725-1.959,1.188-2.788,1.946c-2.756,2.522-6.279,2.154-9.552,2.562
		c-4.072,0.504-8.026-0.392-11.892-1.656c-0.125-0.041-0.259-0.064-0.376-0.119c-4.002-1.889-8.118-3.636-11.398-6.687
		c-1.784-1.657-3.271-3.653-4.784-5.581c-2.168-2.763-4.055-5.673-5.167-9.078c-1.488-4.562-2.25-9.16-1.654-13.949
		c0.059-0.478,0.162-0.99,0.053-1.439c-0.812-3.365-0.074-6.633,0.67-9.871c0.973-4.229,1.845-8.506,3.224-12.606
		c1.916-5.693,4.771-11.031,9.025-15.295c2.682-2.688,5.958-4.746,10.062-5.275c2.767-0.354,5.419-1.569,8.123-2.396
		c0.332-0.103,0.677-0.279,1.007-0.262c3.346,0.186,6.659,0.219,9.984,1.146c2.465,0.688,5.035,1.108,7.369,2.177
		c2.974,1.361,5.504,3.451,7.547,5.963c1.362,1.672,0.775,3.852,0.468,5.838c-0.034,0.227-0.258,0.507-0.468,0.607
		c-2.439,1.174-4.566,2.943-7.683,2.519c-2.152-0.294-4.44,0.271-6.646,0.604c-0.671,0.102-1.408,0.591-1.866,1.117
		c-1.528,1.752-2.731,3.723-3.513,5.936c-0.407,1.154-0.918,2.271-1.31,3.432c-0.323,0.952-0.579,1.935-0.798,2.918
		c-0.635,2.854-1.159,5.732-1.866,8.568c-1.467,5.883-2.409,11.854-2.884,17.885c-0.184,2.344,0.069,4.732,0.271,7.089
		c0.143,1.69,1.073,2.09,2.382,1.004c1.948-1.617,3.824-3.332,5.642-5.097c4.943-4.799,9.814-9.664,14.028-15.146
		c1.304-1.694,2.905-3.163,4.167-4.884c1.393-1.896,2.538-3.968,3.812-5.949c1.276-1.986,2.721-3.881,3.843-5.951
		c2.376-4.39,4.838-8.76,6.791-13.342c1.391-3.265,2.056-6.846,2.96-10.31c1.139-4.354,2.205-8.729,3.277-13.1
		c0.25-1.021,0.422-2.063,0.577-3.104c0.414-2.756,0.73-5.524,1.229-8.265c0.256-1.409,0.902-2.745,1.22-4.146
		c0.462-2.045,0.736-4.135,1.184-6.185c1.271-5.83,2.604-11.646,3.88-17.475c0.317-1.455,0.528-2.936,0.763-4.408
		c0.172-1.087,0.716-1.397,1.836-1.28c3.214,0.336,5.395,1.958,6.872,4.809c0.628,1.211,1.552,2.335,2.553,3.272
		c1.611,1.509,2.526,3.415,3.497,5.31c1.203,2.344,1.423,4.855,1.232,7.435c-0.068,0.917-0.142,1.835-0.18,2.753
		c-0.174,4.286-0.396,8.572-0.483,12.859c-0.049,2.452,0.288,4.916,0.17,7.358c-0.194,4.068-0.458,8.146-0.974,12.183
		c-0.691,5.384-1.673,10.729-2.489,16.097c-0.477,3.12-1.083,6.241-1.258,9.381c-0.218,3.881-0.023,7.783-0.054,11.677
		c-0.015,1.882-0.183,3.763-0.2,5.646c-0.022,2.224,0.001,4.448,0.083,6.67c0.045,1.221,0.214,2.443,0.394,3.654
		c0.228,1.533,0.937,1.82,2.234,0.896c2.318-1.653,4.696-3.244,6.893-5.052c2.667-2.196,5.278-4.483,7.704-6.938
		c1.415-1.432,2.478-3.229,3.57-4.944c0.281-0.441,0.195-1.213,0.082-1.794c-0.978-4.971-0.689-9.938-0.078-14.911
		c0.41-3.34,0.438-6.771,1.78-9.92c1.338-3.14,2.848-6.205,4.303-9.292c0.124-0.264,0.374-0.545,0.634-0.652
		c2.352-0.971,4.648-2.37,7.098-2.738c3.521-0.527,7.155-0.308,10.741-0.377c0.468-0.009,0.944,0.144,1.41,0.253
		c1.092,0.261,2.167,0.628,3.272,0.791c2.007,0.295,4.507,3.191,4.917,5.638c0.781,4.643-0.221,9.051-1.488,13.467
		c-0.942,3.28-2.696,6.113-4.439,8.981c-0.537,0.887-0.595,2.113-1.238,2.875c-2.254,2.671-3.042,6.077-4.781,8.986
		c-0.761,1.271-1.825,2.357-2.636,3.604c-0.32,0.495-0.325,1.196-0.475,1.805c0.656,0.14,1.356,0.494,1.959,0.371
		c0.918-0.189,1.883-0.555,2.628-1.113c2.662-1.996,5.317-4.018,7.832-6.195c3.014-2.608,5.993-5.276,8.788-8.116
		c3.958-4.026,7.766-8.205,11.556-12.396c0.566-0.625,0.848-1.631,0.982-2.504c0.763-4.938,1.424-9.893,2.163-14.836
		c0.155-1.041,0.229-2.254,0.812-3.036c1.159-1.559,3.017-1.628,4.812-1.416c1.825,0.215,3.654,0.46,5.46,0.798
		c0.927,0.175,1.8,0.625,2.72,0.867c0.963,0.252,2.004,0.271,2.921,0.625c4.247,1.642,7.009,4.706,7.688,9.211
		c0.392,2.612,0.089,5.325,0.14,7.992c0.021,1.024,0.149,2.046,0.229,3.068c0.812-0.513,1.727-0.913,2.416-1.558
		c1.909-1.787,3.602-3.824,5.606-5.486c3.042-2.522,6.494-4.312,10.563-4.508c1.922-0.094,3.849-0.185,5.771-0.145
		c3.02,0.062,5.715,1.379,8.369,2.594c1.147,0.524,2.008,1.778,2.859,2.818c1,1.224,1.352,1.313,2.49,0.208
		c2.482-2.407,4.961-4.817,7.453-7.216c2.567-2.475,5.633-4.191,8.937-5.396c1.143-0.416,2.588-0.1,3.886,0.014
		c2.306,0.2,4.631,0.354,6.897,0.789c4.768,0.914,7.079,3.762,7.415,8.649c0.282,4.151,0.718,8.294,0.975,12.446
		c0.098,1.562-0.195,3.146-0.179,4.719c0.043,3.5,0.149,6.998,0.279,10.494c0.018,0.418,0.247,0.967,0.563,1.184
		c0.199,0.14,0.8-0.154,1.129-0.383c2.155-1.491,4.309-2.988,6.416-4.547c0.983-0.728,1.986-1.498,2.731-2.443
		c0.351-0.442,0.278-1.387,0.12-2.036c-1.245-5.081-3.438-9.992-2.806-15.404c0.396-3.395,0.532-6.875,1.441-10.136
		c1.02-3.651,3.397-6.61,7-8.217c2.433-1.085,4.91-2.207,7.486-2.793c3.522-0.801,6.73,0.481,9.591,2.57
		c0.405,0.296,0.663,0.805,0.968,1.229c0.836,1.173,1.759,2.299,2.454,3.55c0.425,0.764,0.557,1.715,0.713,2.6
		c0.175,0.977,0.237,1.975,0.329,2.965c0.348,3.771,0.431,7.412-1.632,10.923c-1.335,2.272-1.979,4.955-2.916,7.46
		c-0.689,1.846-1.158,3.811-2.098,5.517c-0.85,1.541-2.219,2.789-3.319,4.194c-0.315,0.4-0.498,0.906-0.742,1.363
		c0.579,0.009,1.3,0.246,1.714-0.01c3.683-2.279,7.372-4.555,10.928-7.021c2.111-1.465,4.157-3.11,5.929-4.966
		c2.409-2.526,4.665-5.229,6.742-8.04c2.812-3.803,5.555-7.678,8.002-11.719c1.318-2.176,1.966-4.76,2.9-7.164
		c0.128-0.325,0.18-0.678,0.283-1.016c0.981-3.218,1.562-3.608,4.906-3.117c2.035,0.299,4.062,0.665,6.082,1.059
		c0.498,0.099,1.026,0.33,1.415,0.654c3.31,2.76,5.734,6.014,6.656,10.4c0.564,2.682,0.653,5.335,0.763,8.022
		c0.014,0.402,0.224,0.799,0.344,1.197c0.365-0.197,0.779-0.338,1.088-0.603c1.463-1.25,2.841-2.604,4.352-3.787
		c3.18-2.489,6.367-4.973,9.654-7.313c2.199-1.566,4.767-2.182,7.433-2.771c5.448-1.211,10.522,0.118,15.641,1.485
		c2.262,0.606,3.828,2.25,5.229,4.027c0.26,0.327,0.465,0.791,0.476,1.199c0.09,2.875,0.872,5.688,0.336,8.633
		c-0.445,2.438-0.194,5.004-0.613,7.451c-0.67,3.915-1.365,7.865-2.568,11.636c-1.008,3.152-1.97,6.261-2.276,9.558
		c-0.037,0.394-0.104,0.787-0.081,1.179c0.036,0.649,0.345,0.889,0.946,0.487c4.362-2.899,8.998-5.342,13.126-8.67
		c2.911-2.352,5.049-5.311,7.688-7.84c0.695-0.668,1.396-1.33,2.113-1.971c2.283-2.034,4.57-4.062,6.859-6.084
		c2.657-2.349,3.19-4.649,2.002-8.037c-1.648-4.688-3.139-9.42-2.761-14.496c0.178-2.359,0.374-4.718,0.588-7.074
		c0.031-0.339,0.175-0.682,0.325-0.992c1.113-2.284,2.223-4.569,3.372-6.836c1.327-2.608,3.34-4.166,6.39-4.338
		c2.311-0.131,4.619-0.773,6.907-0.665c2.509,0.119,5.136,0.466,7.445,1.381c3.987,1.58,6.312,4.708,7.134,9.057
		c1.062,5.627,0.344,10.932-1.855,16.175c-1.631,3.884-4.44,6.922-6.805,10.284c-0.578,0.823-1.258,1.604-1.689,2.499
		c-0.861,1.779-1.4,3.552-0.896,5.683c0.737,3.113,2.373,5.702,3.892,8.416c1.429,2.553,2.524,5.29,3.768,7.945
		c0.63,1.351,1.36,2.666,1.869,4.061c0.565,1.555,0.939,3.179,1.383,4.777c0.953,3.44,2.017,6.856,2.798,10.338
		c0.455,2.028,0.381,4.168,0.673,6.24c0.525,3.731,0.051,7.328-1.208,10.852c-0.116,0.329-0.285,0.668-0.292,1.005
		c-0.074,3.154-1.756,5.641-3.352,8.161c-0.071,0.111-0.188,0.199-0.232,0.318c-1.618,4.323-5.604,6.428-8.879,9.089
		c-1.637,1.327-4.071,1.724-6.198,2.368c-1.33,0.403-2.753,0.627-4.146,0.68c-4.312,0.17-8.702,0.672-12.724-1.49
		c-5.535-2.977-9.125-7.586-10.369-13.707c-0.546-2.688-0.173-5.567-0.149-8.358c0.004-0.494,0.275-1.021,0.535-1.472
		c0.605-1.049,1.787-1.173,2.465-0.164c0.524,0.781,0.894,1.72,1.119,2.638c0.503,2.005,1.408,3.647,3.278,4.705
		c0.788,0.445,1.387,1.241,2.188,1.647c2.514,1.271,7.266,0.322,9.425-1.483c3.203-2.677,4.162-6.299,4.237-10.115
		c0.08-4.062-0.403-8.136-0.597-12.207c-0.1-2.092-0.084-4.189-0.154-6.283c-0.058-1.838-0.051-3.688-0.277-5.509
		c-0.327-2.563-0.782-5.116-1.303-7.646c-0.394-1.909-1.151-2.152-2.561-0.788c-3.274,3.174-6.462,6.434-9.697,9.646
		c-2.92,2.901-5.68,6.006-8.841,8.62c-2.954,2.442-6.283,4.453-10.155,5.326c-2.094,0.473-4.132,1.184-6.22,1.682
		c-5.325,1.266-9.831-0.463-13.818-3.932c-0.356-0.312-0.674-0.713-0.886-1.136c-2.736-5.442-5.152-10.979-4.616-17.313
		C376.219,189.444,376.074,189.429,375.93,189.415z M127.03,177.171c0.048,0.016,0.098,0.031,0.146,0.045
		c0.079,0.646,0.075,1.316,0.267,1.926c0.107,0.348,0.509,0.795,0.824,0.834c0.325,0.039,0.838-0.271,1.039-0.58
		c0.924-1.416,1.875-2.833,2.613-4.348c1.111-2.276,2.202-4.582,3.033-6.97c1.119-3.217,0.463-6.661,0.918-9.98
		c0.069-0.503-0.437-1.511-0.758-1.545c-0.57-0.062-1.41,0.273-1.776,0.732c-2.037,2.554-3.271,5.562-4.342,8.599
		c-0.57,1.619-0.715,3.393-1.004,5.104C127.644,173.044,127.348,175.111,127.03,177.171z M289.256,169.32
		c0.146,0.974,0.175,1.642,0.367,2.256c0.1,0.31,0.479,0.703,0.768,0.732c0.297,0.033,0.756-0.251,0.938-0.53
		c1.002-1.527,2.089-3.027,2.874-4.668c1.934-4.042,4.064-8.037,3.632-12.785c-0.125-1.371,0.203-2.778,0.171-4.164
		c-0.012-0.459-0.456-1.224-0.802-1.283c-0.483-0.086-1.295,0.195-1.561,0.594c-1.063,1.585-2.075,3.223-2.908,4.938
		c-1.293,2.675-2.344,5.417-2.486,8.485C290.145,165.144,289.573,167.372,289.256,169.32z M435.008,150.595
		c0.104,0.023,0.209,0.045,0.312,0.068c0,0.176-0.059,0.382,0.012,0.521c0.336,0.657,0.556,1.554,1.105,1.88
		c0.842,0.5,1.545-0.186,2.043-0.926c0.683-1.018,1.477-1.976,2.031-3.059c1.434-2.803,2.781-5.648,4.127-8.496
		c0.43-0.908,0.813-1.851,1.084-2.814c0.347-1.235-0.242-2.718-1.113-3.117c-1.779-0.817-5.764,0.66-6.458,2.455
		c-0.346,0.894-0.558,1.843-0.769,2.777C436.575,143.452,435.796,147.025,435.008,150.595z"/>
	<path fill="#FFFFFF" d="M390.108,72.085c2.962-0.368,6.09,0.49,9.158,1.612c1.277,0.468,1.565,1.274,1.14,2.503
		c-0.339,0.974-1.134,1.119-2.007,1.146c-2.762,0.083-5.528,0.102-8.283,0.283c-1.83,0.123-3.646,0.479-5.468,0.74
		c-0.981,0.14-1.529,0.707-1.782,1.676c-0.842,3.227-1.677,6.459-2.629,9.655c-0.344,1.153-1.081,2.187-1.51,3.323
		c-0.553,1.463-0.959,2.984-1.461,4.468c-0.799,2.354-1.394,4.813-2.486,7.025c-2.541,5.146-4.917,10.456-8.157,15.149
		c-2.415,3.5-4.188,7.698-8.06,10.078c-1.598,0.982-3.207,1.976-4.911,2.74c-2.181,0.981-4.427,1.846-6.708,2.569
		c-2.93,0.929-5.773,0.395-8.579-0.762c-1.448-0.596-3.109-0.704-4.507-1.382c-3.257-1.577-6.07-3.675-6.838-7.559
		c-0.041-0.212-0.084-0.468-0.224-0.607c-2.917-2.961-3.107-6.917-3.562-10.635c-0.532-4.359-0.544-8.81,1.97-12.761
		c0.771-1.213,1.646-2.368,2.543-3.493c1.228-1.538,2.367-3.194,3.827-4.483c1.886-1.663,3.966-3.147,6.112-4.465
		c3.429-2.105,6.902-4.171,10.504-5.956c3.332-1.652,6.817-3.021,10.311-4.308c1.923-0.708,2.727-2.021,3.061-3.847
		c0.53-2.89,0.956-5.805,1.61-8.667c0.891-3.888,1.959-7.734,2.942-11.6c0.161-0.637,0.34-1.278,0.394-1.927
		c0.021-0.271-0.271-0.568-0.423-0.853c-0.245,0.15-0.567,0.247-0.728,0.463c-1.822,2.503-3.621,5.027-5.431,7.541
		c-0.179,0.248-0.353,0.533-0.597,0.697c-2.566,1.72-3.884,4.607-6.129,6.597c-2.482,2.2-5.105,4.256-7.791,6.207
		c-1.71,1.245-3.487,2.378-5.582,3.097c-1.735,0.597-3.396,0.875-5.135,0.632c-3.688-0.513-7.195-1.612-10.28-3.775
		c-3.342-2.344-5.417-5.616-6.4-9.515c-0.749-2.963-1.193-6.003-1.805-9.002c-0.08-0.396-0.339-0.757-0.517-1.135
		c-0.387,0.229-0.912,0.362-1.135,0.698c-0.627,0.947-1.152,1.966-1.678,2.977c-2.313,4.456-5.055,8.623-8.476,12.31
		c-1.488,1.604-2.914,3.339-4.663,4.608c-3.024,2.196-5.978,4.688-9.818,5.354c-1.617,0.28-3.398,0.46-4.954,0.072
		c-3.322-0.828-6.614-2.012-8.961-4.695c-1.137-1.299-2.009-2.865-2.813-4.407c-2.703-5.176-4.359-10.691-4.023-16.548
		c0.203-3.568,1.146-7.093,1.716-10.644c0.799-4.974,1.563-9.949,2.313-14.93c0.05-0.338-0.171-0.716-0.266-1.075
		c-0.332,0.155-0.757,0.229-0.983,0.479c-2.527,2.785-5.148,5.495-7.496,8.424c-2.954,3.687-5.671,7.561-8.505,11.341
		c-0.472,0.631-1.113,1.146-1.521,1.812c-1.731,2.831-3.428,5.685-5.097,8.553c-0.938,1.614-4.512,3.116-6.353,2.966
		c-4.581-0.375-6.535-3.651-8.442-7.138c-1.704-3.116-1.337-6.284-0.792-9.596c0.61-3.712,0.86-7.484,1.221-11.234
		c0.029-0.308-0.242-0.836-0.491-0.923c-0.243-0.086-0.763,0.174-0.95,0.435c-2,2.772-3.96,5.574-5.929,8.371
		c-1.233,1.756-2.462,3.519-3.688,5.28c-0.224,0.323-0.49,0.637-0.627,0.998c-1.482,3.889-3.911,7.218-6.19,10.644
		c-0.574,0.864-0.87,1.907-1.377,2.821c-1.974,3.557-3.657,7.334-6.064,10.572c-2.421,3.258-4.415,6.729-6.262,10.269
		c-1.961,3.756-3.394,7.789-5.036,11.709c-0.185,0.439-0.253,0.934-0.335,1.406c-0.492,2.854-2.334,4.595-5.205,4.732
		c-5.372,0.257-9.938-1.45-13.666-5.464c-1.577-1.697-2.174-3.711-2.837-5.792c-0.518-1.617-1.345-3.141-1.839-4.765
		c-0.32-1.061-0.572-2.281-0.368-3.337c0.852-4.384,1.925-8.726,2.842-13.098c0.567-2.701,1.009-5.431,1.492-8.149
		c0.052-0.298,0.054-0.623-0.012-0.917c-0.049-0.232-0.253-0.623-0.359-0.613c-0.257,0.022-0.601,0.179-0.726,0.389
		c-0.287,0.486-0.507,1.025-0.679,1.566c-1.219,3.828-3.929,6.574-6.718,9.255c-0.692,0.667-1.534,1.184-2.208,1.865
		c-1.908,1.936-4.245,3.219-6.813,3.79c-2.14,0.477-4.424,0.457-6.638,0.398c-1.379-0.036-2.752-0.525-4.116-0.855
		c-2.272-0.551-4.134-1.702-5.788-3.423c-2.928-3.048-5.829-6.066-7.544-10.022c-0.508-1.173-1.223-1.203-2.164,0.047
		c-1.474,1.952-3.09,3.891-4.093,6.089c-2.218,4.854-5.532,8.907-8.652,13.146c-4.01,5.444-9.573,8.05-15.893,9.469
		c-1.009,0.227-2.109,0.238-3.142,0.126c-2.777-0.301-5.645-0.382-8.281-1.188c-2.938-0.897-5.701-2.422-8.469-3.813
		c-2.686-1.35-4.583-3.663-6.42-5.938c-2.386-2.955-4.776-5.888-5.958-9.676c-1.395-4.475-1.5-8.979-1.031-13.526
		c0.527-5.119,1.979-10.035,3.646-14.897c1.293-3.771,2.171-7.697,3.651-11.389c1.785-4.454,4.027-8.838,8.311-11.397
		c3.331-1.989,6.947-3.578,10.582-4.964c4.409-1.682,8.936-3.092,13.477-4.384c5.042-1.434,10.183-1.889,15.247-0.054
		c5.268,1.908,8.634,5.833,10.951,10.781c0.168,0.356,0.287,0.743,0.496,1.073c0.613,0.981,1.044,0.924,1.757,0.044
		c2.651-3.278,6.226-4.983,10.476-4.292c2.678,0.435,4.846,1.615,6.174,3.922c0.62,1.076,0.871,2.496,0.874,3.763
		c0.005,1.871-0.139,3.802-0.615,5.604c-0.824,3.122-1.513,6.257-1.774,9.472c-0.229,2.784-0.331,5.578-0.494,8.367
		c-0.084,1.443-0.265,2.887-0.25,4.329c0.026,2.486,0.153,4.974,0.285,7.458c0.019,0.346,0.306,0.679,0.469,1.017
		c0.329-0.178,0.71-0.299,0.979-0.543c3.934-3.54,7.155-7.691,10.157-12.013c3.068-4.416,5.934-8.978,9.066-13.346
		c3.21-4.477,6.222-9.114,10.316-12.915c2.766-2.565,3.784-6.145,4.927-9.613c0.836-2.538,1.662-5.088,2.698-7.546
		c0.718-1.699,2.56-3.427,4.97-3.222c1.909,0.162,3.854-0.044,5.755,0.172c2.031,0.231,3.66,1.441,5.052,2.879
		c1.094,1.132,2.142,2.331,3.051,3.612c0.451,0.637,0.761,1.528,0.761,2.305c0.002,2.541-0.079,5.089-0.291,7.62
		c-0.331,3.973-0.812,7.933-1.178,11.9c-0.042,0.473,0.243,0.976,0.375,1.464c0.5-0.191,1.111-0.257,1.482-0.591
		c2.477-2.216,4.792-4.627,7.374-6.708c2.855-2.302,5.84-4.486,8.967-6.396c1.973-1.205,4.344-1.514,6.739-1.213
		c0.98,0.123,2.042,0.106,2.993-0.133c1.955-0.492,3.737-0.127,5.493,0.677c0.358,0.165,0.677,0.445,1.049,0.548
		c2.535,0.712,3.285,2.648,3.511,4.984c0.18,1.876,0.367,3.751,0.621,5.618c0.057,0.419,0.404,0.798,0.62,1.197
		c0.367-0.203,0.778-0.354,1.099-0.616c1.985-1.636,3.955-3.297,5.926-4.953c0.201-0.169,0.41-0.337,0.571-0.542
		c2.673-3.397,6.263-5.486,10.397-6.178c2.95-0.495,6.006-1.409,9.102-0.367c0.743,0.25,1.663-0.08,2.465,0.07
		c2.393,0.442,4.001,2.16,5.502,3.849c1.292,1.458,2.691,3.07,3.26,4.862c0.768,2.408,1.229,5.094,1.023,7.595
		c-0.482,5.843-1.332,11.663-2.242,17.458c-0.57,3.636-1.565,7.2-2.273,10.816c-0.239,1.229-0.267,2.519-0.23,3.776
		c0.026,0.925,0.581,1.343,1.326,0.512c1.077-1.202,2.021-2.525,3.093-3.73c3.076-3.459,6.229-6.852,9.276-10.335
		c3.048-3.49,6.161-6.896,8.493-10.994c3.086-5.424,6.4-10.738,9.969-15.855c1.465-2.102,2.177-4.376,2.986-6.65
		c1.129-3.172,1.969-6.449,2.915-9.687c0.297-1.019,0.851-1.647,1.947-1.882c1.058-0.225,2.052-0.783,3.11-0.953
		c1.583-0.253,3.007,0.103,4.114,1.473c1.188,1.474,2.854,2.452,3.809,4.245c1.663,3.126,2.355,6.32,2.027,9.841
		c-0.242,2.592-0.179,5.212-0.271,7.817c-0.08,2.322-0.042,4.66-0.312,6.959c-0.663,5.61-1.482,11.204-2.211,16.808
		c-0.045,0.346,0.143,0.723,0.222,1.086c0.362-0.096,0.804-0.091,1.071-0.305c1.26-1.005,2.532-2.007,3.688-3.127
		c2.599-2.521,5.139-5.101,7.683-7.678c0.646-0.653,1.244-1.358,1.823-2.072c2.234-2.747,4.545-5.439,6.652-8.282
		c2.088-2.81,3.898-5.823,5.954-8.657c2.313-3.193,4.774-6.277,7.145-9.43c0.496-0.662,0.818-1.456,1.312-2.123
		c1.557-2.106,3.104-4.222,4.767-6.242c0.425-0.518,1.249-0.963,1.904-0.985c3.103-0.108,6.209-0.134,9.306-0.006
		c0.705,0.027,1.557,0.637,2.04,1.225c2.604,3.171,3.624,6.72,2.888,10.89c-0.595,3.349-0.614,6.795-0.985,10.188
		c-0.228,2.082-0.685,4.139-0.957,6.215c-0.237,1.809-0.249,3.649-0.557,5.443c-1.143,6.694-2.395,13.369-3.546,20.06
		c-0.707,4.096-1.323,8.204-1.949,12.312c-0.275,1.794,0.175,2.267,2.036,2.285c0.131,0.001,0.263,0,0.395,0
		C388.075,72.085,388.91,72.085,390.108,72.085z M103.76,68.61c0.211,0.444,0.452,0.956,0.694,1.47
		c0.431-0.317,0.926-0.574,1.284-0.959c2.297-2.46,4.567-4.944,6.831-7.435c0.29-0.317,0.515-0.702,0.742-1.07
		c0.523-0.854,0.942-1.79,1.564-2.562c1.666-2.067,3.471-4.022,5.121-6.101c2.701-3.403,5.677-6.625,7.462-10.672
		c0.07-0.157,0.189-0.296,0.288-0.44c1.16-1.698,2.29-3.419,3.495-5.085c0.645-0.891,0.523-1.585-0.228-2.307
		c-0.536-0.516-1.104-1.03-1.507-1.646c-2.659-4.054-6.888-5.349-11.241-6.343c-0.662-0.152-1.671,0.238-2.213,0.72
		c-1.97,1.76-2.887,4.113-3.427,6.662c-0.381,1.796-0.75,3.629-1.438,5.317c-0.945,2.319-1.51,4.665-1.979,7.135
		c-0.917,4.854-2.46,9.585-3.632,14.393C104.876,62.573,104.384,65.511,103.76,68.61z M337.854,108.967
		c0,0.92-0.061,1.848,0.013,2.763c0.162,1.994,1.083,3.491,3.021,4.244c1.812,0.704,3.118-0.217,4.354-1.354
		c1.976-1.815,3.3-4.062,4.43-6.469c1.446-3.088,2.979-6.136,4.493-9.193c0.795-1.605,1.757-3.143,2.409-4.799
		c0.805-2.034,1.384-4.158,2.016-6.257c0.126-0.42,0.043-0.903,0.053-1.357c-0.424,0.032-0.852,0.036-1.27,0.102
		c-0.257,0.041-0.513,0.144-0.737,0.272c-3.636,2.104-7.361,4.066-10.854,6.385c-1.857,1.233-3.618,2.871-4.871,4.702
		C338.7,101.242,337.745,104.998,337.854,108.967z"/>
	<path fill="#FFFFFF" d="M183.904,126.965c-6.485-0.212-12.976-0.312-19.452-0.683c-3.225-0.185-6.416-0.896-9.63-1.306
		c-1.96-0.25-4.413-3.227-3.983-5.053c0.191-0.815,0.468-1.758,1.031-2.312c1.856-1.824,3.945-3.29,6.613-3.834
		c2.606-0.529,5.157-1.331,7.75-1.935c5.805-1.35,11.698-1.695,17.646-1.635c9.297,0.095,18.596-0.008,27.893,0.094
		c7.104,0.077,14.207,0.289,21.307,0.532c8.544,0.293,17.081,0.711,25.623,1.021c6.266,0.227,12.535,0.344,18.803,0.542
		c3.812,0.12,7.62,0.312,11.433,0.45c0.521,0.02,1.059-0.188,1.562-0.115c1.19,0.168,2.445,0.26,3.525,0.726
		c1.185,0.508,1.88,1.516,1.482,3.001c-0.225,0.839-0.011,1.854-0.392,2.581c-1.002,1.911-1.333,4.146-3.413,5.541
		c-3.48,2.333-7.415,3.242-11.355,3.288c-15.964,0.185-31.929,0.064-47.896,0.025c-3.552-0.01-7.103-0.172-10.656-0.225
		c-7.414-0.107-14.831-0.137-22.242-0.302c-5.216-0.116-10.429-0.404-15.643-0.614C183.909,126.826,183.907,126.896,183.904,126.965
		z"/>
</g>
</svg>
