<?xml version="1.0" encoding="utf-8"?>
<!-- Generator: Adobe Illustrator 16.0.0, SVG Export Plug-In . SVG Version: 6.00 Build 0)  -->
<!DOCTYPE svg PUBLIC "-//W3C//DTD SVG 1.1//EN" "http://www.w3.org/Graphics/SVG/1.1/DTD/svg11.dtd">
<svg version="1.1" id="Layer_1" xmlns="http://www.w3.org/2000/svg" xmlns:xlink="http://www.w3.org/1999/xlink" x="0px" y="0px"
	 width="140px" height="29.044px" viewBox="0.866 0 140 29.044" enable-background="new 0.866 0 140 29.044" xml:space="preserve">
<g>
	<path fill="#010202" d="M118.901,10.865c-0.104,0.188-0.204,0.381-0.319,0.566c-0.243,0.391-0.489,0.78-0.744,1.163
		c-0.137,0.204-0.289,0.397-0.446,0.583c-0.24,0.288-0.492,0.565-0.741,0.846c-0.062,0.069-0.142,0.124-0.189,0.199
		c-0.436,0.64-1.114,0.892-1.788,1.172c-0.627,0.261-1.199,0.143-1.785-0.125c-0.232-0.109-0.504-0.142-0.761-0.186
		c-0.07-0.015-0.164,0.034-0.229,0.079c-0.32,0.226-0.627,0.475-0.956,0.686c-0.462,0.294-0.921,0.6-1.413,0.833
		c-0.386,0.184-0.811,0.293-1.229,0.387c-0.626,0.139-1.25-0.232-1.615-0.76c-0.357-0.516-0.644-1.062-0.812-1.667
		c-0.034-0.125-0.056-0.258-0.057-0.387c-0.006-0.625,0.033-1.253-0.013-1.875c-0.053-0.708,0.072-1.396,0.123-2.095
		c0.006-0.077-0.024-0.156-0.039-0.234c-0.066,0.029-0.15,0.042-0.198,0.09c-0.309,0.323-0.616,0.646-0.913,0.98
		c-0.306,0.348-0.613,0.694-0.89,1.065c-0.39,0.525-0.761,1.064-1.116,1.613c-0.272,0.426-0.49,0.891-0.771,1.312
		c-0.241,0.363-0.518,0.709-0.816,1.027c-0.27,0.289-0.62,0.453-1.024,0.273c-0.137-0.061-0.263-0.164-0.357-0.277
		c-0.245-0.289-0.455-0.582-0.592-0.966c-0.221-0.617-0.034-1.185,0.009-1.772c0.042-0.537,0.124-1.071,0.185-1.607
		c0.004-0.034-0.013-0.071-0.021-0.118c-0.283,0.024-0.39,0.247-0.514,0.432c-0.35,0.515-0.714,1.023-1.024,1.561
		c-0.283,0.49-0.505,1.012-0.753,1.523c-0.106,0.219-0.214,0.437-0.319,0.659c-0.179,0.375-0.354,0.748-0.533,1.125
		c-0.066,0.146-0.122,0.297-0.192,0.441c-0.224,0.456-0.474,0.9-0.674,1.365c-0.32,0.748-0.603,1.511-0.92,2.259
		c-0.118,0.279-0.185,0.561-0.24,0.856c-0.069,0.364-0.232,0.716-0.384,1.059c-0.146,0.343-0.497,0.328-0.792,0.388
		c-0.762,0.152-1.434-0.062-2.027-0.539c-0.128-0.103-0.246-0.24-0.322-0.385c-0.218-0.404-0.421-0.816-0.606-1.234
		c-0.244-0.546-0.24-1.125-0.168-1.708c0.113-0.939,0.208-1.883,0.345-2.82c0.135-0.925,0.31-1.841,0.472-2.761
		c0.054-0.3,0.117-0.599,0.179-0.897c-0.023-0.016-0.048-0.032-0.07-0.048c-0.163,0.15-0.339,0.289-0.487,0.452
		c-0.217,0.24-0.419,0.493-0.621,0.747c-0.603,0.761-1.173,1.552-1.815,2.278c-0.606,0.683-1.401,1.034-2.337,0.924
		c-0.417-0.048-0.827-0.17-1.237-0.268c-0.229-0.055-0.414,0.033-0.525,0.206c-0.431,0.674-1.091,1.098-1.667,1.619
		c-0.362,0.329-0.774,0.571-1.166,0.855c-0.129,0.096-0.311,0.114-0.469,0.173c-0.939,0.337-1.876,0.31-2.808-0.035
		c-0.316-0.12-0.629-0.253-0.939-0.39c-0.088-0.04-0.16-0.118-0.236-0.182c-0.23-0.186-0.479-0.359-0.688-0.571
		c-0.189-0.188-0.342-0.414-0.493-0.635c-0.134-0.194-0.27-0.397-0.36-0.615c-0.202-0.488-0.38-0.987-0.557-1.485
		c-0.061-0.166-0.089-0.346-0.141-0.512c-0.015-0.048-0.063-0.12-0.09-0.118c-0.053,0.008-0.111,0.047-0.145,0.092
		c-0.271,0.396-0.542,0.797-0.81,1.197c-0.03,0.045-0.055,0.096-0.08,0.143c-0.248,0.413-0.489,0.831-0.749,1.236
		c-0.244,0.385-0.479,0.778-0.771,1.124c-0.251,0.292-0.571,0.527-0.875,0.771c-0.24,0.192-0.534,0.319-0.646,0.638
		c-0.005,0.016-0.019,0.031-0.03,0.034c-0.458,0.11-0.756,0.532-1.263,0.583c-0.733,0.073-1.459,0.138-2.18-0.032
		c-0.549-0.13-1.082-0.307-1.554-0.634c-0.313-0.218-0.689-0.36-0.967-0.614c-0.376-0.347-0.708-0.75-1.021-1.158
		c-0.351-0.456-0.656-0.941-0.833-1.507c-0.176-0.568-0.301-1.139-0.287-1.738C62,15.078,61.97,14.633,62,14.189
		c0.025-0.413,0.069-0.831,0.165-1.233c0.173-0.742,0.357-1.486,0.593-2.211c0.312-0.963,0.804-1.842,1.499-2.583
		c0.398-0.424,0.906-0.716,1.468-0.898c0.023-0.007,0.047-0.021,0.067-0.017c0.397,0.092,0.748-0.136,1.13-0.173
		c0.178-0.017,0.349-0.11,0.523-0.166c0.094-0.03,0.188-0.08,0.283-0.076c0.371,0.015,0.75-0.003,1.104,0.083
		c0.753,0.186,1.557,0.251,2.189,0.781c0.293,0.246,0.592,0.489,0.871,0.75c0.193,0.182,0.243,0.983,0.045,1.11
		c-0.375,0.242-0.754,0.488-1.255,0.452c-0.41-0.027-0.828,0.03-1.239,0.07c-0.099,0.01-0.215,0.077-0.275,0.155
		c-0.188,0.24-0.373,0.485-0.521,0.75c-0.155,0.282-0.274,0.585-0.393,0.885c-0.062,0.156-0.1,0.324-0.139,0.488
		c-0.083,0.342-0.166,0.685-0.238,1.028c-0.202,0.958-0.438,1.911-0.583,2.875c-0.092,0.611-0.05,1.244-0.059,1.867
		c-0.003,0.263,0.135,0.345,0.354,0.19c0.285-0.196,0.547-0.426,0.803-0.657c0.469-0.424,0.941-0.845,1.383-1.298
		c0.436-0.445,0.837-0.927,1.25-1.396c0.259-0.292,0.523-0.584,0.771-0.887c0.153-0.188,0.284-0.396,0.419-0.599
		c0.154-0.23,0.307-0.462,0.456-0.696c0.255-0.394,0.522-0.782,0.755-1.19c0.326-0.575,0.641-1.159,0.932-1.753
		c0.158-0.321,0.275-0.667,0.373-1.015c0.211-0.756,0.342-1.542,0.615-2.272c0.185-0.485,0.289-0.984,0.429-1.475
		c0.111-0.397,0.195-0.8,0.343-1.193c0.179-0.49,0.28-1.008,0.424-1.511c0.201-0.721,0.411-1.439,0.611-2.161
		c0.041-0.149,0.119-0.229,0.277-0.212c0.501,0.048,0.943,0.178,1.224,0.663c0.122,0.211,0.35,0.361,0.519,0.545
		c0.43,0.471,0.771,0.976,0.696,1.666c-0.037,0.342-0.027,0.69-0.039,1.035c-0.003,0.077,0.001,0.156-0.02,0.229
		c-0.126,0.484-0.136,0.967-0.059,1.462c0.034,0.224,0.005,0.462-0.021,0.69c-0.048,0.429-0.105,0.858-0.17,1.284
		c-0.094,0.625-0.182,1.25-0.292,1.871c-0.15,0.849-0.345,1.691-0.479,2.542c-0.068,0.432-0.056,0.876-0.072,1.313
		c-0.031,0.683-0.08,1.366-0.081,2.049c-0.002,0.538,0.051,1.076,0.091,1.613c0.013,0.171,0.136,0.209,0.311,0.096
		c0.353-0.232,0.718-0.459,1.048-0.722c0.59-0.471,1.174-0.947,1.728-1.455c0.21-0.192,0.355-0.467,0.481-0.727
		c0.06-0.123,0.01-0.301-0.009-0.452c-0.104-0.817-0.055-1.627,0.062-2.44c0.08-0.557,0.095-1.128,0.327-1.649
		c0.236-0.526,0.499-1.042,0.758-1.557c0.037-0.073,0.106-0.152,0.181-0.179c0.396-0.148,0.794-0.354,1.206-0.406
		c0.582-0.071,1.181-0.026,1.771-0.021c0.113,0.001,0.226,0.042,0.334,0.074c0.104,0.028,0.201,0.084,0.308,0.1
		c0.604,0.094,0.968,0.521,1.038,1.129c0.091,0.761-0.118,1.463-0.325,2.177c-0.154,0.534-0.468,0.978-0.741,1.447
		c-0.072,0.125-0.11,0.27-0.184,0.396c-0.382,0.665-0.763,1.329-1.15,1.99c-0.091,0.15-0.227,0.275-0.312,0.426
		c-0.097,0.168-0.036,0.252,0.158,0.275c0.292,0.032,0.524-0.104,0.744-0.268c0.394-0.297,0.792-0.587,1.169-0.903
		c0.545-0.455,1.086-0.915,1.6-1.402c0.406-0.385,0.771-0.818,1.157-1.224c0.268-0.277,0.555-0.537,0.804-0.828
		c0.119-0.138,0.22-0.323,0.252-0.5c0.141-0.775,0.255-1.554,0.371-2.332c0.022-0.15,0.004-0.307,0.026-0.458
		c0.014-0.089,0.051-0.198,0.114-0.252c0.27-0.228,0.582-0.295,0.93-0.216c0.248,0.057,0.503,0.081,0.75,0.138
		c0.206,0.047,0.405,0.12,0.607,0.181c0.044,0.014,0.087,0.043,0.13,0.044c0.565,0.006,0.941,0.354,1.272,0.747
		c0.262,0.306,0.391,0.691,0.396,1.09c0.007,0.469-0.035,0.938-0.052,1.409c-0.003,0.116,0.02,0.233,0.027,0.35
		c0.022,0.009,0.046,0.02,0.068,0.027c0.179-0.15,0.365-0.29,0.534-0.452c0.411-0.389,0.784-0.826,1.3-1.086
		c0.271-0.135,0.553-0.287,0.845-0.342c0.887-0.171,1.767-0.197,2.617,0.208c0.344,0.163,0.61,0.374,0.817,0.684
		c0.145,0.216,0.248,0.234,0.411,0.029c0.53-0.667,1.188-1.193,1.884-1.661c0.474-0.318,0.986-0.595,1.619-0.462
		c0.43,0.091,0.871,0.105,1.305,0.173c0.546,0.086,1.055,0.667,1.093,1.216c0.057,0.807,0.124,1.614,0.17,2.421
		c0.013,0.243-0.038,0.491-0.057,0.735c-0.012,0.154-0.024,0.309-0.021,0.461c0.01,0.5,0.023,0.999,0.041,1.498
		c0.004,0.129,0.06,0.233,0.2,0.136c0.544-0.375,1.081-0.761,1.619-1.146c0.178-0.127,0.17-0.278,0.104-0.486
		c-0.342-1.07-0.61-2.153-0.352-3.291c0.048-0.204,0.075-0.41,0.106-0.617c0.096-0.631,0.357-1.173,0.852-1.585
		c0.146-0.122,0.319-0.21,0.492-0.29c0.244-0.113,0.5-0.204,0.751-0.305c0.366-0.151,0.737-0.201,1.13-0.089
		c0.272,0.078,0.562,0.107,0.778,0.32c0.14,0.136,0.295,0.26,0.417,0.411c0.147,0.186,0.272,0.391,0.399,0.593
		c0.044,0.069,0.081,0.153,0.088,0.233c0.045,0.503,0.11,1.008,0.103,1.512c-0.005,0.267-0.122,0.54-0.224,0.796
		c-0.211,0.536-0.466,1.057-0.663,1.597c-0.225,0.606-0.485,1.179-0.975,1.622c-0.033,0.031-0.062,0.067-0.092,0.104
		c-0.012,0.016-0.011,0.042-0.029,0.125c0.146-0.025,0.275-0.021,0.381-0.072c0.741-0.365,1.472-0.757,2.082-1.324
		c0.831-0.773,1.698-1.505,2.269-2.528c0.285-0.513,0.757-0.918,1.063-1.422c0.244-0.399,0.37-0.87,0.548-1.312
		c0.021-0.049,0.021-0.105,0.032-0.158c0.112-0.46,0.279-0.575,0.743-0.495c0.396,0.066,0.789,0.142,1.183,0.218
		c0.065,0.013,0.141,0.037,0.188,0.079c0.493,0.412,0.916,0.879,1.082,1.52c0.142,0.543,0.24,1.094,0.176,1.662
		c-0.007,0.062,0,0.124,0.01,0.185c0.003,0.027,0.021,0.054,0.049,0.123c0.224-0.17,0.43-0.333,0.639-0.488
		c0.757-0.563,1.432-1.238,2.278-1.67c0.297-0.15,0.639-0.212,0.965-0.296c0.669-0.172,1.33-0.075,1.987,0.085
		c0.195,0.048,0.39,0.1,0.585,0.138c0.476,0.093,0.767,0.437,1.062,0.771c0.042,0.048,0.065,0.128,0.067,0.192
		c0.016,0.551,0.097,1.099-0.009,1.655c-0.108,0.573-0.121,1.164-0.232,1.736c-0.104,0.533-0.248,1.064-0.438,1.575
		c-0.186,0.5-0.299,1.003-0.341,1.528c-0.004,0.054,0.001,0.108,0.006,0.16c0.003,0.023,0.017,0.045,0.034,0.093
		c0.244-0.133,0.487-0.255,0.722-0.392c0.245-0.145,0.486-0.296,0.723-0.456c0.381-0.258,0.778-0.5,1.127-0.797
		c0.386-0.328,0.718-0.714,1.082-1.066c0.243-0.235,0.505-0.453,0.752-0.683c0.421-0.393,0.858-0.771,1.249-1.193
		c0.23-0.25,0.119-0.586,0.046-0.885c-0.139-0.562-0.319-1.114-0.412-1.683c-0.063-0.396-0.011-0.812-0.009-1.22
		c0-0.015,0.008-0.032,0.007-0.045c-0.049-0.887,0.456-1.581,0.838-2.31c0.188-0.361,0.516-0.588,0.977-0.597
		c0.429-0.006,0.855-0.135,1.281-0.12c0.409,0.015,0.842,0.083,1.217,0.237c0.712,0.292,1.094,0.851,1.207,1.64
		c0.197,1.383-0.119,2.615-0.931,3.73c-0.284,0.393-0.604,0.761-0.896,1.148c-0.333,0.44-0.317,0.928-0.104,1.402
		c0.226,0.497,0.502,0.969,0.738,1.459c0.14,0.29,0.252,0.594,0.371,0.892c0.089,0.221,0.177,0.444,0.256,0.671
		c0.088,0.243,0.17,0.488,0.24,0.74c0.117,0.404,0.228,0.812,0.335,1.223c0.18,0.709,0.27,1.434,0.292,2.157
		c0.015,0.452-0.125,0.909-0.2,1.362c-0.011,0.067-0.056,0.133-0.064,0.199c-0.076,0.655-0.425,1.188-0.755,1.742
		c-0.248,0.414-0.604,0.681-0.939,0.993c-0.43,0.399-0.943,0.628-1.481,0.76c-0.454,0.109-0.92,0.215-1.413,0.178
		c-0.405-0.029-0.812-0.01-1.203-0.152c-0.165-0.06-0.33-0.126-0.481-0.212c-0.953-0.537-1.519-1.38-1.74-2.421
		c-0.094-0.437,0.005-0.919,0.047-1.378c0.018-0.187,0.124-0.361,0.357-0.355c0.227,0.005,0.308,0.169,0.357,0.361
		c0.061,0.223,0.065,0.496,0.204,0.648c0.252,0.275,0.584,0.481,0.886,0.715c0.027,0.021,0.075,0.033,0.109,0.027
		c0.402-0.075,0.847,0,1.197-0.268c0.395-0.302,0.664-0.684,0.791-1.187c0.152-0.615,0.085-1.222,0.058-1.837
		c-0.031-0.678,0.005-1.354-0.012-2.033c-0.012-0.444-0.058-0.89-0.1-1.334c-0.025-0.283-0.063-0.567-0.119-0.845
		c-0.06-0.295-0.155-0.331-0.384-0.131c-0.249,0.217-0.474,0.462-0.717,0.688c-0.885,0.822-1.745,1.677-2.669,2.454
		c-0.463,0.39-1.015,0.693-1.642,0.814c-0.433,0.083-0.853,0.214-1.282,0.309c-0.824,0.183-1.484-0.216-2.123-0.645
		c-0.132-0.087-0.224-0.261-0.291-0.41c-0.411-0.943-0.754-1.897-0.703-2.962c0.032-0.663,0.24-1.271,0.425-1.889
		c0.189-0.633,0.396-1.262,0.586-1.895c0.02-0.069-0.021-0.156-0.034-0.234c-0.076,0.022-0.173,0.023-0.229,0.073
		c-0.248,0.22-0.508,0.432-0.72,0.682c-0.372,0.438-0.705,0.913-1.069,1.358c-0.441,0.536-0.919,1.042-1.34,1.591
		c-0.252,0.327-0.443,0.703-0.64,1.069c-0.421,0.779-0.797,1.584-1.244,2.348c-0.635,1.085-1.29,2.149-1.766,3.32
		c-0.173,0.427-0.475,0.81-0.771,1.172c-0.294,0.356-0.732,0.451-1.163,0.312c-0.361-0.114-0.631-0.396-0.842-0.717
		c-0.098-0.147-0.19-0.301-0.276-0.454c-0.055-0.099-0.118-0.204-0.134-0.313c-0.093-0.654-0.211-1.311-0.243-1.968
		c-0.021-0.392,0.085-0.795,0.167-1.185c0.205-0.985,0.413-1.976,0.656-2.952c0.195-0.791,0.46-1.564,0.665-2.354
		c0.177-0.667,0.398-1.329,0.42-2.029c0.001-0.021-0.015-0.042-0.022-0.064C118.949,10.888,118.926,10.876,118.901,10.865z
		 M113.307,8.09c-0.03-0.052-0.063-0.188-0.145-0.226c-0.069-0.032-0.229,0.021-0.282,0.086c-0.171,0.216-0.34,0.442-0.455,0.689
		c-0.239,0.515-0.508,1.016-0.534,1.608c-0.02,0.397-0.104,0.791-0.149,1.188c-0.014,0.104-0.001,0.216,0.024,0.318
		c0.016,0.055,0.084,0.132,0.129,0.133c0.062,0.001,0.151-0.045,0.188-0.099c0.179-0.267,0.362-0.534,0.509-0.82
		c0.195-0.381,0.421-0.767,0.518-1.177C113.23,9.258,113.242,8.699,113.307,8.09z M83.825,12.214
		c0.007,0.002,0.014,0.004,0.021,0.006c0.013,0.107,0.008,0.219,0.039,0.319c0.021,0.061,0.096,0.134,0.15,0.14
		c0.058,0.006,0.133-0.055,0.179-0.105c0.057-0.061,0.094-0.139,0.133-0.213c0.295-0.566,0.627-1.118,0.87-1.703
		c0.23-0.551,0.104-1.169,0.187-1.752c0.014-0.081-0.075-0.242-0.135-0.251c-0.094-0.014-0.243,0.042-0.294,0.119
		c-0.337,0.496-0.65,1.006-0.824,1.586c-0.069,0.241-0.103,0.494-0.144,0.744C83.944,11.471,83.884,11.842,83.825,12.214z
		 M136.784,8.587c0.021,0.005,0.044,0.011,0.066,0.018c0,0.069-0.021,0.146,0.004,0.206c0.042,0.1,0.095,0.236,0.176,0.266
		c0.077,0.028,0.232-0.026,0.295-0.097c0.169-0.197,0.326-0.411,0.451-0.638c0.229-0.417,0.438-0.845,0.652-1.272
		c0.089-0.18,0.177-0.36,0.242-0.549c0.083-0.239-0.021-0.538-0.19-0.614c-0.206-0.091-0.885,0.067-0.997,0.266
		c-0.107,0.189-0.187,0.402-0.241,0.614C137.08,7.384,136.934,7.987,136.784,8.587z"/>
	<path fill="#010202" d="M35.253,10.391c-0.146,0.152-0.294,0.301-0.437,0.457c-0.359,0.4-0.729,0.792-1.067,1.21
		c-0.424,0.528-0.821,1.077-1.23,1.618c-0.129,0.171-0.271,0.336-0.383,0.519c-0.307,0.496-0.606,0.998-0.9,1.501
		c-0.184,0.315-0.786,0.553-1.151,0.519c-0.761-0.067-1.038-0.66-1.388-1.188c-0.354-0.535-0.226-1.101-0.142-1.678
		c0.088-0.602,0.121-1.211,0.171-1.817c0.006-0.079-0.016-0.162-0.028-0.27c-0.069,0.04-0.117,0.051-0.142,0.082
		c-0.317,0.427-0.634,0.853-0.946,1.285c-0.274,0.38-0.562,0.753-0.812,1.15c-0.191,0.303-0.332,0.638-0.501,0.957
		c-0.104,0.198-0.217,0.389-0.326,0.583c-0.21,0.375-0.404,0.759-0.635,1.12c-0.409,0.641-0.688,1.363-1.23,1.919
		c-0.031,0.034-0.062,0.069-0.083,0.11c-0.4,0.818-0.817,1.632-1.193,2.464c-0.196,0.432-0.312,0.897-0.475,1.345
		c-0.132,0.365-0.471,0.452-0.792,0.513c-0.464,0.084-0.932-0.008-1.354-0.177c-0.522-0.209-0.924-0.61-1.27-1.049
		c-0.119-0.151-0.151-0.367-0.226-0.555c-0.142-0.356-0.295-0.708-0.411-1.073c-0.048-0.151-0.043-0.336-0.012-0.495
		c0.236-1.21,0.487-2.416,0.732-3.625c0.016-0.068,0.002-0.143,0.002-0.213c-0.024-0.009-0.05-0.015-0.073-0.022
		c-0.045,0.079-0.109,0.154-0.136,0.237c-0.22,0.71-0.74,1.194-1.249,1.691c-0.094,0.091-0.201,0.166-0.295,0.257
		c-0.91,0.87-1.968,0.96-3.121,0.607c-0.387-0.117-0.726-0.273-0.971-0.619c-0.133-0.188-0.341-0.316-0.478-0.503
		c-0.269-0.354-0.521-0.722-0.754-1.101c-0.146-0.233-0.227-0.26-0.406-0.048c-0.357,0.421-0.603,0.907-0.864,1.389
		c-0.318,0.586-0.711,1.135-1.105,1.671c-0.271,0.371-0.542,0.743-0.934,1.019c-0.631,0.445-1.319,0.736-2.07,0.874
		c-0.251,0.048-0.521-0.01-0.782-0.022c-0.578-0.029-1.146-0.075-1.653-0.427c-0.23-0.159-0.563-0.18-0.801-0.338
		c-0.341-0.227-0.67-0.493-0.944-0.801c-0.398-0.443-0.796-0.906-1.094-1.42c-0.277-0.477-0.371-1.039-0.411-1.601
		c-0.076-1.095,0.113-2.147,0.452-3.184c0.286-0.879,0.517-1.779,0.85-2.638c0.284-0.732,0.647-1.458,1.331-1.91
		C3.98,8.407,4.497,8.169,5.012,7.952C5.52,7.741,6.052,7.571,6.584,7.428c0.883-0.237,1.748-0.569,2.686-0.524
		c0.794,0.037,1.547,0.23,2.122,0.786c0.334,0.323,0.546,0.772,0.812,1.166c0.021,0.031,0.019,0.077,0.04,0.108
		c0.06,0.093,0.124,0.185,0.187,0.276c0.074-0.069,0.162-0.128,0.221-0.208c0.397-0.536,1.257-0.778,1.955-0.576
		c0.288,0.084,0.521,0.196,0.728,0.436c0.213,0.248,0.283,0.52,0.273,0.807c-0.011,0.391-0.015,0.805-0.143,1.167
		c-0.174,0.488-0.205,0.988-0.277,1.483c-0.048,0.341-0.054,0.689-0.079,1.031c-0.026,0.438-0.076,0.876-0.078,1.314
		c0,0.368,0.045,0.738,0.092,1.104c0.021,0.168,0.126,0.195,0.233,0.084c0.258-0.265,0.525-0.52,0.765-0.797
		c0.304-0.355,0.595-0.723,0.871-1.101c0.416-0.571,0.818-1.153,1.219-1.736c0.295-0.432,0.562-0.884,0.869-1.307
		c0.334-0.461,0.655-0.944,1.062-1.335c0.585-0.562,0.938-1.23,1.159-1.991c0.129-0.442,0.255-0.889,0.411-1.324
		c0.091-0.253,0.281-0.471,0.56-0.499c0.416-0.042,0.839-0.042,1.258-0.039c0.433,0.003,0.719,0.281,0.984,0.577
		c0.12,0.131,0.21,0.292,0.339,0.409c0.222,0.202,0.288,0.445,0.27,0.729c-0.042,0.559-0.076,1.121-0.119,1.682
		c-0.037,0.492-0.084,0.981-0.12,1.474c-0.007,0.104,0.012,0.207,0.019,0.313c0.023,0.016,0.044,0.032,0.067,0.048
		c0.196-0.159,0.398-0.312,0.587-0.479c0.506-0.451,0.988-0.929,1.514-1.354c0.327-0.263,0.698-0.496,1.084-0.653
		c0.295-0.12,0.645-0.103,0.972-0.136c0.183-0.019,0.374,0.013,0.55-0.029c0.328-0.079,0.625-0.028,0.918,0.122
		c0.026,0.015,0.054,0.033,0.083,0.041c0.594,0.156,0.699,0.626,0.737,1.142c0.019,0.246,0.036,0.493,0.067,0.737
		c0.011,0.074,0.06,0.166,0.119,0.2c0.035,0.021,0.136-0.046,0.189-0.095c0.503-0.451,0.982-0.93,1.508-1.353
		c0.502-0.403,1.067-0.708,1.746-0.712c0.19-0.001,0.38-0.081,0.57-0.078c0.352,0.004,0.704,0.039,1.054,0.072
		c0.359,0.035,0.571,0.318,0.827,0.523C37.844,9.214,38.11,9.588,38.228,10c0.12,0.419,0.109,0.883,0.113,1.328
		c0.002,0.267-0.09,0.531-0.118,0.8c-0.05,0.48-0.05,0.968-0.131,1.441c-0.136,0.791-0.312,1.573-0.479,2.358
		c-0.069,0.324-0.143,0.645,0,1.033c0.124-0.125,0.235-0.215,0.32-0.322c0.303-0.379,0.584-0.776,0.901-1.145
		c0.328-0.379,0.696-0.72,1.027-1.093c0.41-0.46,0.835-0.914,1.187-1.417c0.368-0.526,0.64-1.117,0.986-1.662
		c0.378-0.599,0.808-1.165,1.177-1.768c0.173-0.285,0.274-0.618,0.377-0.938c0.17-0.527,0.322-1.062,0.47-1.596
		c0.058-0.206,0.148-0.339,0.376-0.379c0.187-0.033,0.362-0.131,0.548-0.161c0.262-0.042,0.497,0.002,0.675,0.249
		c0.184,0.259,0.475,0.416,0.637,0.715c0.301,0.559,0.409,1.131,0.344,1.759c-0.042,0.425-0.021,0.856-0.037,1.283
		c-0.011,0.371-0.006,0.741-0.045,1.108c-0.099,0.927-0.218,1.851-0.332,2.776c-0.015,0.121-0.05,0.239-0.07,0.36
		c-0.004,0.025,0.019,0.055,0.053,0.15c0.317-0.274,0.626-0.511,0.899-0.781c0.532-0.523,1.055-1.056,1.561-1.604
		c0.264-0.288,0.489-0.613,0.723-0.928c0.526-0.709,1.049-1.42,1.564-2.138c0.507-0.706,1.001-1.42,1.503-2.129
		c0.173-0.245,0.335-0.502,0.539-0.72c0.104-0.114,0.283-0.213,0.433-0.22c0.53-0.028,1.061-0.021,1.59-0.012
		c0.089,0.002,0.205,0.056,0.263,0.124c0.45,0.521,0.703,1.105,0.607,1.82c-0.087,0.656-0.13,1.316-0.204,1.976
		c-0.036,0.312-0.101,0.62-0.138,0.932c-0.036,0.283-0.038,0.569-0.08,0.85c-0.149,0.976-0.303,1.951-0.469,2.923
		c-0.152,0.886-0.324,1.77-0.486,2.656c-0.013,0.066-0.019,0.139-0.025,0.205c-0.016,0.211,0.07,0.32,0.292,0.314
		c0.265-0.007,0.53-0.033,0.787,0.003c0.464,0.065,0.924,0.161,1.38,0.263c0.165,0.035,0.29,0.133,0.25,0.35
		c-0.042,0.215-0.134,0.31-0.368,0.321c-0.729,0.033-1.457,0.098-2.187,0.144c-0.312,0.021-0.458,0.193-0.526,0.483
		c-0.128,0.542-0.272,1.079-0.412,1.615c-0.021,0.081-0.041,0.178-0.095,0.234c-0.302,0.323-0.31,0.757-0.452,1.144
		c-0.2,0.54-0.411,1.08-0.668,1.595c-0.337,0.685-0.658,1.394-1.107,1.999c-0.449,0.604-0.741,1.353-1.421,1.771
		c-0.326,0.201-0.665,0.388-1.017,0.542c-0.343,0.15-0.7,0.272-1.062,0.373c-0.43,0.12-0.853,0.057-1.268-0.104
		c-0.271-0.103-0.556-0.171-0.839-0.25c-0.228-0.062-0.426-0.158-0.569-0.362c-0.094-0.132-0.226-0.233-0.338-0.35
		c-0.049-0.051-0.119-0.098-0.134-0.156c-0.095-0.396-0.37-0.699-0.535-1.052c-0.171-0.368-0.242-0.791-0.304-1.197
		c-0.118-0.792-0.059-1.571,0.344-2.287c0.126-0.226,0.291-0.434,0.454-0.637c0.228-0.28,0.443-0.579,0.71-0.816
		c0.312-0.277,0.662-0.521,1.019-0.744c0.562-0.35,1.128-0.699,1.721-0.989c0.658-0.322,1.344-0.579,2.022-0.854
		c0.152-0.062,0.24-0.15,0.271-0.311c0.116-0.598,0.221-1.198,0.358-1.791c0.157-0.683,0.346-1.359,0.511-2.042
		c0.028-0.117,0.007-0.246,0.01-0.369c-0.088,0.082-0.186,0.158-0.262,0.252c-0.131,0.16-0.23,0.35-0.377,0.495
		c-0.33,0.32-0.512,0.759-0.911,1.034c-0.25,0.171-0.414,0.469-0.613,0.713c-0.405,0.498-0.929,0.854-1.46,1.194
		c-0.333,0.217-0.682,0.419-1.051,0.563c-0.216,0.084-0.485,0.069-0.727,0.054c-0.773-0.06-1.482-0.291-2.048-0.849
		c-0.382-0.379-0.686-0.817-0.812-1.348c-0.132-0.539-0.223-1.087-0.338-1.63c-0.017-0.074-0.067-0.144-0.103-0.214
		c-0.069,0.051-0.168,0.086-0.208,0.156c-0.211,0.365-0.396,0.749-0.614,1.11c-0.52,0.854-1.106,1.665-1.898,2.283
		c-0.468,0.365-0.947,0.74-1.553,0.891c-0.438,0.105-0.871,0.14-1.295-0.026c-0.321-0.125-0.642-0.263-0.939-0.438
		c-0.508-0.293-0.653-0.855-0.925-1.325c-0.069-0.117-0.103-0.257-0.157-0.385c-0.458-1.085-0.451-2.194-0.22-3.332
		c0.211-1.049,0.357-2.112,0.529-3.169c0.016-0.097,0.002-0.198,0.002-0.297C35.308,10.406,35.279,10.399,35.253,10.391z
		 M6.222,17.544c0.047,0.106,0.08,0.179,0.112,0.253c0.063-0.035,0.143-0.061,0.189-0.108c0.422-0.448,0.838-0.902,1.254-1.355
		c0.041-0.045,0.063-0.105,0.102-0.154c0.208-0.283,0.413-0.57,0.633-0.846c0.296-0.369,0.643-0.704,0.902-1.098
		c0.318-0.485,0.735-0.905,0.96-1.458c0.108-0.266,0.321-0.487,0.481-0.732c0.206-0.315,0.202-0.313-0.059-0.58
		c-0.119-0.122-0.215-0.264-0.333-0.385c-0.121-0.126-0.236-0.281-0.389-0.354c-0.425-0.2-0.864-0.368-1.301-0.539
		c-0.163-0.064-0.32-0.026-0.413,0.116c-0.173,0.26-0.358,0.521-0.473,0.81c-0.225,0.564-0.402,1.147-0.599,1.723
		c-0.021,0.065-0.046,0.134-0.046,0.202c-0.005,0.708-0.274,1.354-0.447,2.026C6.585,15.888,6.411,16.726,6.222,17.544z
		 M46.428,24.517c0,0.154-0.014,0.31,0.002,0.463c0.037,0.34,0.205,0.59,0.535,0.72c0.304,0.115,0.527-0.041,0.73-0.225
		c0.141-0.128,0.278-0.271,0.374-0.436c0.244-0.42,0.474-0.846,0.691-1.279c0.232-0.459,0.417-0.943,0.672-1.389
		c0.277-0.483,0.433-1.005,0.577-1.528c0.052-0.188-0.018-0.249-0.206-0.2c-0.073,0.02-0.148,0.046-0.215,0.083
		c-0.586,0.339-1.187,0.657-1.749,1.029c-0.323,0.215-0.643,0.479-0.858,0.792C46.584,23.128,46.411,23.805,46.428,24.517z"/>
</g>
</svg>
