<?xml version="1.0" encoding="utf-8"?>
<!-- Generator: Adobe Illustrator 16.0.0, SVG Export Plug-In . SVG Version: 6.00 Build 0)  -->
<!DOCTYPE svg PUBLIC "-//W3C//DTD SVG 1.1//EN" "http://www.w3.org/Graphics/SVG/1.1/DTD/svg11.dtd">
<svg version="1.1" id="Layer_1" xmlns="http://www.w3.org/2000/svg" xmlns:xlink="http://www.w3.org/1999/xlink" x="0px" y="0px"
	 width="50px" height="50px" viewBox="-13 0 50 50" enable-background="new -13 0 50 50" xml:space="preserve">
<path fill="#DBD9D7" d="M22.938,15.184v2.644c0,0.618-0.503,1.123-1.121,1.123h-2.643c-0.623,0-1.123-0.505-1.123-1.123v-2.644
	c0-0.619,0.5-1.121,1.123-1.121h2.643C22.435,14.062,22.938,14.564,22.938,15.184z M12,30.607c3.097,0,5.611-2.511,5.611-5.609
	c0-3.098-2.515-5.604-5.611-5.604c-3.098,0-5.606,2.508-5.606,5.605C6.394,28.097,8.902,30.607,12,30.607z M20.879,23.75
	c0.057,0.408,0.094,0.824,0.094,1.248c0,4.958-4.017,8.975-8.973,8.975S3.027,29.956,3.027,25c0-0.426,0.038-0.84,0.096-1.248
	c0.057-0.404,0.138-0.798,0.246-1.182H1.062v12.248c0,0.619,0.502,1.121,1.121,1.121h19.633c0.618,0,1.121-0.502,1.121-1.121V22.57
	h-2.307C20.736,22.954,20.817,23.348,20.879,23.75z M37,25c0,13.807-11.193,25-25,25c-13.806,0-25-11.193-25-25
	C-13,11.194-1.806,0,12,0C25.807,0,37,11.194,37,25z M26.583,13.781c0-1.858-1.505-3.365-3.364-3.365H0.782
	c-1.858,0-3.365,1.507-3.365,3.365v22.435c0,1.862,1.507,3.367,3.365,3.367h22.437c1.859,0,3.364-1.505,3.364-3.367V13.781z"/>
</svg>
