<?xml version="1.0" encoding="utf-8"?>
<!-- Generator: Adobe Illustrator 16.0.0, SVG Export Plug-In . SVG Version: 6.00 Build 0)  -->
<!DOCTYPE svg PUBLIC "-//W3C//DTD SVG 1.1//EN" "http://www.w3.org/Graphics/SVG/1.1/DTD/svg11.dtd">
<svg version="1.1" id="Layer_1" xmlns="http://www.w3.org/2000/svg" xmlns:xlink="http://www.w3.org/1999/xlink" x="0px" y="0px"
	 width="50px" height="50px" viewBox="-13 0 50 50" enable-background="new -13 0 50 50" xml:space="preserve">
<path fill="#DBD9D7" d="M12,0C-1.806,0-13,11.194-13,25c0,13.807,11.194,25,25,25c13.807,0,25-11.193,25-25C37,11.194,25.807,0,12,0
	z M24.639,20.094c0.38,8.418-5.896,17.801-17.01,17.801c-3.379,0-6.522-0.992-9.17-2.689c3.175,0.374,6.343-0.509,8.858-2.479
	C4.7,32.678,2.49,30.949,1.725,28.57c0.94,0.18,1.865,0.128,2.705-0.102c-2.878-0.58-4.866-3.171-4.8-5.943
	c0.809,0.447,1.729,0.717,2.71,0.747c-2.665-1.78-3.418-5.3-1.852-7.989c2.95,3.621,7.36,6.002,12.333,6.252
	c-0.873-3.741,1.966-7.348,5.831-7.348c1.718,0,3.276,0.728,4.366,1.889c1.363-0.266,2.646-0.766,3.801-1.451
	c-0.447,1.398-1.396,2.568-2.633,3.311c1.213-0.146,2.364-0.467,3.437-0.943C26.823,18.195,25.811,19.25,24.639,20.094z"/>
</svg>
